<svg xmlns="http://www.w3.org/2000/svg" viewBox="-17.097 -10.662 154.574 154.574" role="img" aria-label="Colyseus"><title>Colyseus</title><path fill="#e8eaed" d="m19.8,48.53c3.4,2.77,7.52,5.48,12.5,7.91,3.66-7.06,17.75-24.8,57.44-19.62l-3.55-13.63c-49.3-4.23-63.47,18.99-66.4,25.34Z"/><path fill="#e8eaed" d="m10.96,41.3c5.52-10.03,24.41-30.58,71.44-26.05L76.37.39S27.06-5.33,2.19,26.95c.89,2.6,3.28,8.21,8.77,14.35Z"/><path fill="#e8eaed" d="m100.37,71.71c-7.91.83-15.27,1.22-22.07,1.22C30.31,72.92,9.06,54.07,0,40.61v62.04s3.88,40.13,120.38,28.48l-20-59.42Z"/></svg>
