<svg xmlns="http://www.w3.org/2000/svg" viewBox="0 0 70 44" width="70" height="44" role="img" aria-label="shadcn/ui"><title>shadcn/ui</title><g transform="translate(23 0)"><path fill="currentColor" d="M22.219 11.784 11.784 22.219c-.407.407-.407 1.068 0 1.476.407.407 1.068.407 1.476 0L23.695 13.26c.407-.408.407-1.069 0-1.476-.408-.407-1.069-.407-1.476 0ZM20.132.305.305 20.132c-.407.407-.407 1.068 0 1.476.408.407 1.069.407 1.476 0L21.608 1.781c.407-.407.407-1.068 0-1.476-.408-.407-1.069-.407-1.476 0Z"/></g><text x="35" y="40" text-anchor="middle" font-family="ui-sans-serif, system-ui, -apple-system, 'Segoe UI', Roboto, 'Helvetica Neue', Arial, sans-serif" font-size="11" font-weight="600" letter-spacing="-0.1" fill="currentColor">shadcn/ui</text></svg>
